<svg width="177" height="114" viewBox="0 0 177 114" fill="none" xmlns="http://www.w3.org/2000/svg">
<path d="M144.642 47.8851C144.642 47.411 144.721 46.9368 144.721 46.4627C144.721 20.7818 124.256 0 99.0094 0C80.7958 0 65.1502 10.8255 57.8016 26.4711C54.6013 24.8512 51.006 23.903 47.2132 23.903C35.558 23.903 25.8388 32.5555 23.9819 43.8551C9.99576 48.6752 0 62.0688 0 77.833C0 97.6666 15.8431 113.786 35.3605 113.786H75.8571V82.179H56.8138L88.5 49.1098L120.186 82.1395H101.143V113.747H144.721C162.579 113.747 177 98.9309 177 80.7962C177 62.6615 162.5 47.9246 144.642 47.8851Z" fill="#00CC99"/>
</svg>
